# AST/ASF file generated using VICON BodyLanguage
# -----------------------------------------------
:version 1.10
:name VICON
:units
  mass 1.0
  length 0.1
  angle deg
:documentation
   .ast/.asf automatically generated from VICON data using
   VICON BodyBuilder and BodyLanguage model FULLBODY5.MOD
:root
   order TX TY TZ RZ RY RX
   axis XYZ
   position 0 0 0  
   orientation 0 -0 0 
:bonedata
  begin
     id 1 
     name lhipjoint
     direction 0.961525 -0.229516 0.150972 
     length 0.502153 
     axis 0 -0 0  XYZ
  end
  begin
     id 2 
     name lfemur
     direction 0.173648 -0.984808 0  
     length 1.83052  
     axis 0 -0 10  XYZ
    dof rx ry rz
    limits (-180.0 180.0)
           (-180.0 180.0)
           (-180.0 180.0)
  end
  begin
     id 3 
     name ltibia
     direction 0.173629 -0.984811 0   
     length 1.50296   
     axis 0 -0 10   XYZ
    dof rx ry rz
    limits (-180.0 180.0)
           (-180.0 180.0)
           (-180.0 180.0)
  end
  begin
     id 4 
     name lfoot
     direction 7.59329e-012 -0.227408 0.9738   
     length 0.574743   
     axis -90 -1.73656e-015 10   XYZ
    dof rx ry rz
    limits (-180.0 180.0)
           (-180.0 180.0)
           (-180.0 180.0)
  end
  begin
     id 5 
     name ltoes
     direction 7.79885e-012 -4.41741e-011 1   
     length 0.28489   
     axis -90 -1.73656e-015 10   XYZ
    dof rx ry rz
    limits (-180.0 180.0)
           (-180.0 180.0)
           (-180.0 180.0)
  end
  begin
     id 6 
     name rhipjoint
     direction -0.970498 -0.201437 0.132502   
     length 0.572149  
     axis 0 -0 0  XYZ 
  end
  begin
     id 7 
     name rfemur
     direction -0.173648 -0.984808 0   
     length 1.71866   
     axis 0 -0 -10   XYZ
    dof rx ry rz
    limits (-180.0 180.0)
           (-180.0 180.0)
           (-180.0 180.0)
  end
  begin
     id 8 
     name rtibia
     direction -0.173624 -0.984812 0   
     length 1.42623   
     axis 0 -0 -10   XYZ
    dof rx ry rz
    limits (-180.0 180.0)
           (-180.0 180.0)
           (-180.0 180.0)
 end
 begin
     id 9 
     name rfoot
     direction -7.12931e-012 -0.404275 0.914637   
     length 0.524692  
     axis -90 1.73656e-015 -10   XYZ
    dof rx ry rz
    limits (-180.0 180.0)
           (-180.0 180.0)
           (-180.0 180.0)
  end
  begin
     id 10 
     name rtoes
     direction -7.79289e-012 -4.41454e-011 1   
     length 0.254983   
     axis -90 1.73656e-015 -10   XYZ
    dof rx ry rz
    limits (-180.0 180.0)
           (-180.0 180.0)
           (-180.0 180.0)
  end
  begin
     id 11 
     name lowerback
     direction -0.0214086 0.993738 0.109665   
     length 0.417614   
     axis 0 -0 0   XYZ
    dof rx ry rz
    limits (-180.0 180.0)
           (-180.0 180.0)
           (-180.0 180.0)
  end
  begin
     id 12 
     name upperback
     direction 8.15962e-005 0.99996 0.00893412   
     length 0.419234   
     axis 0 -0 0   XYZ
    dof rx ry rz
    limits (-180.0 180.0)
           (-180.0 180.0)
           (-180.0 180.0)
  end
  begin
     id 13 
     name thorax
     direction 0.00826031 0.999067 -0.0423848   
     length 0.424697   
     axis 0 -0 0   XYZ
    dof rx ry rz
    limits (-180.0 180.0)
           (-180.0 180.0)
           (-180.0 180.0)
  end
  begin
     id 14 
     name lowerneck
     direction -0.0196262 0.994272 -0.105058   
     length 0.355877   
     axis 0 -0 0   XYZ
    dof rx ry rz
    limits (-180.0 180.0)
           (-180.0 180.0)
           (-180.0 180.0)
  end
  begin
     id 15 
     name upperneck
     direction 0.000117372 0.999091 0.0426261   
     length 0.351054   
     axis 0 -0 0   XYZ
    dof rx ry rz
    limits (-180.0 180.0)
           (-180.0 180.0)
           (-180.0 180.0)
  end
  begin
     id 16
     name head
     direction 0.00157618 0.999651 0.0263619  
     length 0.374844  
     axis 0 -0 0   XYZ
    dof rx ry rz
    limits (-180.0 180.0)
           (-180.0 180.0)
           (-180.0 180.0)
  end
  begin
     id 17 
     name lshoulderjoint
     direction 0.981627 -0.190809 0  
     length 0.701763  
     axis 0 -0 -11   XYZ
    dof rx ry rz
    limits (-180.0 180.0)
           (-180.0 180.0)
           (-180.0 180.0)
  end
  begin
     id 18 
     name lhumerus
     direction 0.48481 -0.87462 -1.80676e-026   
     length 0.994704   
     axis -180 5.14477e-009 -151   XYZ
    dof rx ry rz
    limits (-180.0 180.0)
           (-180.0 180.0)
           (-180.0 180.0)
  end
  begin
     id 19
     name lradius
     direction 0.48481 -0.87462 -3.2569e-026   
     length 0.617638   
     axis -180 5.14477e-009 -151   XYZ
    dof rx ry rz
    limits (-180.0 180.0)
           (-180.0 180.0)
           (-180.0 180.0)
  end
  begin
     id 20
     name lwrist
     direction 0.48481 -0.87462 -6.73202e-026   
     length 0.308819   
     axis -180 5.14477e-009 -151   XYZ
    dof rx ry rz
    limits (-180.0 180.0)
           (-180.0 180.0)
           (-180.0 180.0)
  end
  begin
     id 21 
     name lhand
     direction 0.478366 -0.863761 -0.158376   
     length 0.291656   
     axis -180 5.14477e-009 -151   XYZ
    dof rx ry rz
    limits (-180.0 180.0)
           (-180.0 180.0)
           (-180.0 180.0)
  end
  begin
     id 22 
     name rshoulderjoint
     direction -0.981627 -0.190809 0   
     length 0.66654  
     axis 0 -0 11   XYZ 
    dof rx ry rz
    limits (-180.0 180.0)
           (-180.0 180.0)
           (-180.0 180.0)
  end
  begin
     id 23 
     name rhumerus
     direction -0.48481 -0.87462 1.77576e-026  
     length 1.15089   
     axis 180 5.14477e-009 151   XYZ
    dof rx ry rz
    limits (-180.0 180.0)
           (-180.0 180.0)
           (-180.0 180.0)
  end
  begin
     id 24 
     name rradius
     direction -0.48481 -0.87462 3.79421e-026   
     length 0.613887   
     axis 180 5.14477e-009 151   XYZ
    dof rx ry rz
    limits (-180.0 180.0)
           (-180.0 180.0)
           (-180.0 180.0)
  end
  begin
     id 25 
     name rwrist
     direction -0.48481 -0.87462 5.43623e-026   
     length 0.306944   
     axis 180 5.14477e-009 151   XYZ
    dof rx ry rz
    limits (-180.0 180.0)
           (-180.0 180.0)
           (-180.0 180.0)
  end
  begin
     id 26
     name rhand
     direction -0.479273 -0.864638 -0.150661   
     length 0.306429   
     axis 180 5.14477e-009 151   XYZ
    dof rx ry rz
    limits (-180.0 180.0)
           (-180.0 180.0)
           (-180.0 180.0)
  end
:hierarchy
  begin
    root lhipjoint rhipjoint lowerback 
    lhipjoint lfemur
    lfemur ltibia
    ltibia lfoot
    lfoot ltoes
    rhipjoint rfemur
    rfemur rtibia
    rtibia rfoot
    rfoot rtoes
    lowerback upperback
    upperback thorax
    thorax lowerneck lshoulderjoint rshoulderjoint
    lowerneck upperneck
    upperneck head
    lshoulderjoint lhumerus
    lhumerus lradius
    lradius lwrist
    lwrist lhand
    rshoulderjoint rhumerus
    rhumerus rradius
    rradius rwrist
    rwrist rhand
  end

:FULLY-SPECIFIED
:DEGREES
808
root -3.39321 3.60216 -0.412683 109.917 -78.4978 102.679
lowerback -12.943 0.739087 -3.41018
upperback -2.89901 1.38809 -2.08287
thorax 4.1734 0.594973 -0.0345323
lowerneck 13.0717 0.513927 -2.5204
upperneck -3.93963 0.342461 1.32795
head -3.63476 0.140447 0.87059
rshoulderjoint 1.24977 -3.32863 -31.5928
rhumerus -1.78734 -9.94536 -55.187
rradius 30.3864 -4.77083e-015 -2.10314e-013
rwrist 6.77425e-013 9.61117 -4.72585e-013
rhand 10.8307 -8.39907 30.3631
lshoulderjoint 2.69604 9.47812 26.9585
lhumerus 6.60836 26.4771 55.6274
lradius 14.7864 -1.81292e-013 -8.50798e-014
lwrist 4.3633e-013 -5.73571 -2.39742e-014
lhand 28.2529 5.75138 -8.75875
rfemur -29.3523 4.14089 5.65625
rtibia 65.1493 -1.66979e-014 1.15295e-014
rfoot -1.67642 13.4951 -20.9839
rtoes -1.81292e-013 -2.79094e-013 2.44903e-013
lfemur -16.7705 -8.22111 -22.3574
ltibia 12.5991 0 4.6118e-014
lfoot -6.80851 -5.05224 10.2221
ltoes 7.22582e-014 -1.22699e-013 -4.50372e-014
809
root -3.43057 3.60851 -0.411429 109.448 -78.5637 102.453
lowerback -12.7267 0.617115 -3.05923
upperback -2.86788 1.17377 -2.02881
thorax 4.09915 0.495577 -0.211867
lowerneck 13.0876 0.598495 -2.45985
upperneck -3.97075 0.463695 1.31062
head -3.65103 0.200295 0.845329
rshoulderjoint 1.26015 -3.36477 -31.5454
rhumerus -2.19811 -9.97113 -55.1647
rradius 30.478 -1.11319e-013 8.70677e-014
rwrist 4.25853e-013 9.64503 1.83891e-013
rhand 10.7807 -8.27936 30.4234
lshoulderjoint 2.71274 9.48988 27.0337
lhumerus 7.28657 25.187 55.7327
lradius 15.3309 2.79889e-013 2.22639e-014
lwrist 2.51193e-013 -6.30457 -7.83977e-014
lhand 28.0658 5.95437 -9.68141
rfemur -30.4546 4.28944 5.65877
rtibia 64.0711 8.74653e-015 -1.11319e-014
rfoot -2.2442 13.6313 -21.1918
rtoes -6.36111e-014 4.25399e-014 -5.40694e-014
lfemur -15.3857 -8.1915 -22.2531
ltibia 11.0566 3.18055e-015 -1.74931e-014
lfoot -6.54628 -4.91516 10.1078
ltoes -8.54774e-015 7.33242e-014 2.79789e-014
810
root -3.46774 3.61402 -0.41206 109.283 -78.6213 102.48
lowerback -12.511 0.484812 -2.90886
upperback -2.84657 0.970336 -1.93778
thorax 4.00794 0.39922 -0.235119
lowerneck 13.1304 0.677671 -2.38843
upperneck -3.97488 0.573482 1.2315
head -3.6621 0.256788 0.798129
rshoulderjoint 1.26377 -3.37827 -31.5241
rhumerus -2.60624 -9.80921 -55.1057
rradius 30.5861 2.70347e-014 3.22031e-014
rwrist -6.44967e-015 9.50551 3.54732e-014
rhand 10.5924 -8.14261 30.6022
lshoulderjoint 2.70814 9.42826 27.1062
lhumerus 7.76941 23.3111 55.5736
lradius 15.9484 -8.26944e-014 -8.74653e-014
lwrist 1.60231e-014 -7.02554 -1.21775e-013
lhand 27.6596 6.92584 -10.7645
rfemur -31.5129 4.59237 5.61048
rtibia 62.7707 -1.86858e-014 1.55052e-014
rfoot -2.66795 13.5652 -21.4331
rtoes 4.45278e-014 -1.90833e-013 1.52667e-013
lfemur -13.9933 -8.10522 -22.1723
ltibia 9.44789 1.27222e-014 5.08889e-014
lfoot -6.23846 -5.15072 10.0308
ltoes 3.29983e-014 -1.24086e-013 -4.76509e-014
811
root -3.50436 3.6188 -0.411179 108.422 -78.7378 101.836
lowerback -12.2501 0.30672 -2.66518
upperback -2.81785 0.693861 -1.81884
thorax 3.90122 0.268056 -0.292153
lowerneck 13.1893 0.782805 -2.47582
upperneck -4.00205 0.696549 1.22162
head -3.68657 0.31958 0.801835
rshoulderjoint 1.25232 -3.34053 -31.5641
rhumerus -3.01853 -9.50455 -55.0041
rradius 30.6855 -1.36764e-013 2.20651e-013
rwrist -9.09012e-013 9.35744 6.5436e-013
rhand 10.2753 -8.14684 30.8737
lshoulderjoint 2.69471 9.3877 27.0954
lhumerus 8.21684 21.6217 55.4258
lradius 16.6914 2.51264e-013 2.14687e-014
lwrist -8.34513e-013 -7.72251 -2.19862e-013
lhand 27.1691 7.63553 -11.8741
rfemur -32.3983 4.65459 5.56816
rtibia 61.2143 -5.96354e-016 1.59028e-015
rfoot -2.94531 13.3985 -21.3612
rtoes -7.31528e-014 -4.01545e-014 3.18055e-014
lfemur -12.5228 -8.15781 -22.081
ltibia 7.75343 -1.59028e-015 6.36111e-015
lfoot -5.97995 -5.46883 9.92361
ltoes 2.3556e-014 -9.9186e-015 -3.8612e-014
